<svg width="123" height="50" viewBox="0 0 123 50" fill="none" xmlns="http://www.w3.org/2000/svg">
<path d="M23.8 0H4.2C1.88125 0 0 2.09961 0 4.6875V45.3125C0 47.9004 1.88125 50 4.2 50H23.8C26.1188 50 28 47.9004 28 45.3125V4.6875C28 2.09961 26.1188 0 23.8 0ZM14 46.875C12.4513 46.875 11.2 45.4785 11.2 43.75C11.2 42.0215 12.4513 40.625 14 40.625C15.5488 40.625 16.8 42.0215 16.8 43.75C16.8 45.4785 15.5488 46.875 14 46.875Z" fill="#0066FF"/>
<path d="M35.8687 17.4922L40.2847 28.5137L44.7007 17.4922H47.0107V31H45.2295V25.7397L45.3965 20.062L40.9619 31H39.5981L35.1729 20.0898L35.3491 25.7397V31H33.5679V17.4922H35.8687ZM49.4321 25.8882C49.4321 24.9048 49.6239 24.0203 50.0073 23.2349C50.397 22.4494 50.9351 21.8433 51.6216 21.4165C52.3143 20.9897 53.1029 20.7764 53.9873 20.7764C55.3542 20.7764 56.4582 21.2495 57.2993 22.1958C58.1466 23.1421 58.5703 24.4007 58.5703 25.9717V26.0923C58.5703 27.0695 58.3817 27.9478 58.0044 28.7271C57.6333 29.5002 57.0983 30.1032 56.3994 30.5361C55.7067 30.9691 54.9089 31.1855 54.0059 31.1855C52.6452 31.1855 51.5412 30.7124 50.6938 29.7661C49.8527 28.8198 49.4321 27.5674 49.4321 26.0088V25.8882ZM51.1577 26.0923C51.1577 27.2056 51.4144 28.0993 51.9277 28.7734C52.4473 29.4476 53.14 29.7847 54.0059 29.7847C54.8779 29.7847 55.5706 29.4445 56.084 28.7642C56.5973 28.0776 56.854 27.119 56.854 25.8882C56.854 24.7873 56.5911 23.8966 56.0654 23.2163C55.5459 22.5298 54.8532 22.1865 53.9873 22.1865C53.14 22.1865 52.4565 22.5236 51.937 23.1978C51.4175 23.8719 51.1577 24.8368 51.1577 26.0923ZM63.8862 28.6714L66.3726 20.9619H68.126L64.5264 31H63.2183L59.5815 20.9619H61.335L63.8862 28.6714ZM71.6421 31H69.9258V20.9619H71.6421V31ZM69.7866 18.2993C69.7866 18.021 69.8701 17.786 70.0371 17.5942C70.2103 17.4025 70.4639 17.3066 70.7979 17.3066C71.1318 17.3066 71.3854 17.4025 71.5586 17.5942C71.7318 17.786 71.8184 18.021 71.8184 18.2993C71.8184 18.5776 71.7318 18.8096 71.5586 18.9951C71.3854 19.1807 71.1318 19.2734 70.7979 19.2734C70.4639 19.2734 70.2103 19.1807 70.0371 18.9951C69.8701 18.8096 69.7866 18.5776 69.7866 18.2993ZM76.2622 31H74.5459V16.75H76.2622V31ZM83.2666 24.979C81.7389 24.5399 80.6257 24.0018 79.9268 23.3647C79.234 22.7215 78.8877 21.9299 78.8877 20.9897C78.8877 19.9259 79.3114 19.0477 80.1587 18.355C81.0122 17.6561 82.1193 17.3066 83.48 17.3066C84.4077 17.3066 85.2334 17.486 85.957 17.8447C86.6868 18.2035 87.2497 18.6982 87.6455 19.3291C88.0475 19.96 88.2485 20.6496 88.2485 21.3979H86.458C86.458 20.5815 86.1982 19.9414 85.6787 19.4775C85.1592 19.0075 84.4263 18.7725 83.48 18.7725C82.6017 18.7725 81.9152 18.9673 81.4204 19.3569C80.9318 19.7404 80.6875 20.2754 80.6875 20.9619C80.6875 21.5124 80.9194 21.9793 81.3833 22.3628C81.8534 22.7401 82.6481 23.0864 83.7676 23.4019C84.8932 23.7173 85.7715 24.0667 86.4023 24.4502C87.0394 24.8275 87.5094 25.2697 87.8125 25.7769C88.1217 26.284 88.2764 26.8809 88.2764 27.5674C88.2764 28.6621 87.8496 29.5404 86.9961 30.2021C86.1426 30.8577 85.0015 31.1855 83.5728 31.1855C82.645 31.1855 81.7791 31.0093 80.9751 30.6567C80.1711 30.298 79.5495 29.8094 79.1104 29.1909C78.6774 28.5724 78.4609 27.8704 78.4609 27.085H80.2515C80.2515 27.9014 80.5514 28.5477 81.1514 29.0239C81.7575 29.494 82.5646 29.729 83.5728 29.729C84.5129 29.729 85.2334 29.5373 85.7344 29.1538C86.2354 28.7703 86.4858 28.2477 86.4858 27.5859C86.4858 26.9242 86.2539 26.4139 85.79 26.0552C85.3262 25.6903 84.485 25.3315 83.2666 24.979ZM92.0151 22.1772C92.7759 21.2433 93.7655 20.7764 94.9839 20.7764C97.1053 20.7764 98.1753 21.9731 98.1938 24.3667V31H96.4775V24.3574C96.4714 23.6338 96.3044 23.0988 95.9766 22.7524C95.6549 22.4061 95.1509 22.2329 94.4644 22.2329C93.9077 22.2329 93.4191 22.3813 92.9985 22.6782C92.578 22.9751 92.2502 23.3647 92.0151 23.8472V31H90.2988V16.75H92.0151V22.1772ZM100.309 25.8882C100.309 24.9048 100.501 24.0203 100.884 23.2349C101.274 22.4494 101.812 21.8433 102.499 21.4165C103.191 20.9897 103.98 20.7764 104.864 20.7764C106.231 20.7764 107.335 21.2495 108.176 22.1958C109.024 23.1421 109.447 24.4007 109.447 25.9717V26.0923C109.447 27.0695 109.259 27.9478 108.881 28.7271C108.51 29.5002 107.975 30.1032 107.276 30.5361C106.584 30.9691 105.786 31.1855 104.883 31.1855C103.522 31.1855 102.418 30.7124 101.571 29.7661C100.73 28.8198 100.309 27.5674 100.309 26.0088V25.8882ZM102.035 26.0923C102.035 27.2056 102.291 28.0993 102.805 28.7734C103.324 29.4476 104.017 29.7847 104.883 29.7847C105.755 29.7847 106.448 29.4445 106.961 28.7642C107.474 28.0776 107.731 27.119 107.731 25.8882C107.731 24.7873 107.468 23.8966 106.942 23.2163C106.423 22.5298 105.73 22.1865 104.864 22.1865C104.017 22.1865 103.333 22.5236 102.814 23.1978C102.294 23.8719 102.035 24.8368 102.035 26.0923ZM120.079 26.0923C120.079 27.62 119.73 28.8507 119.031 29.7847C118.332 30.7186 117.386 31.1855 116.192 31.1855C114.973 31.1855 114.015 30.799 113.316 30.0259V34.8594H111.6V20.9619H113.167L113.251 22.0752C113.95 21.2093 114.921 20.7764 116.164 20.7764C117.37 20.7764 118.323 21.231 119.021 22.1401C119.727 23.0493 120.079 24.3141 120.079 25.9346V26.0923ZM118.363 25.8975C118.363 24.7656 118.122 23.8719 117.639 23.2163C117.157 22.5607 116.495 22.2329 115.654 22.2329C114.615 22.2329 113.835 22.6937 113.316 23.6152V28.4116C113.829 29.327 114.615 29.7847 115.672 29.7847C116.495 29.7847 117.147 29.46 117.63 28.8105C118.118 28.1549 118.363 27.1839 118.363 25.8975Z" fill="#0066FF"/>
<path d="M34 36L122 36" stroke="#0066FF" stroke-opacity="0.8" stroke-linecap="round" stroke-linejoin="round"/>
</svg>
 